<?xml version="1.0" standalone="no"?><!DOCTYPE svg PUBLIC "-//W3C//DTD SVG 1.1//EN" "http://www.w3.org/Graphics/SVG/1.1/DTD/svg11.dtd"><svg t="1584792829731" class="icon" viewBox="0 0 1024 1024" version="1.1" xmlns="http://www.w3.org/2000/svg" p-id="1733" xmlns:xlink="http://www.w3.org/1999/xlink" width="32" height="32"><defs><style type="text/css"></style></defs><path d="M616 656h-208a40 40 0 0 1-40-40v-208a40 40 0 0 1 40-40h208a40 40 0 0 1 40 40v208a40 40 0 0 1-40 40z" fill="#FFD740" p-id="1734"></path><path d="M616 664h-208c-26.464 0-48-21.536-48-48v-208c0-26.464 21.536-48 48-48h208c26.464 0 48 21.536 48 48v208c0 26.464-21.536 48-48 48z m-208-288c-17.648 0-32 14.352-32 32v208c0 17.648 14.352 32 32 32h208c17.648 0 32-14.352 32-32v-208c0-17.648-14.352-32-32-32h-208z" fill="#263238" p-id="1735"></path><path d="M576 208h-128a16 16 0 0 1-16-16V64a16 16 0 0 1 16-16h128a16 16 0 0 1 16 16v128a16 16 0 0 1-16 16z" fill="#40C4FF" p-id="1736"></path><path d="M576 216h-128c-13.232 0-24-10.768-24-24V64c0-13.232 10.768-24 24-24h128c13.232 0 24 10.768 24 24v128c0 13.232-10.768 24-24 24z m-128-160a8 8 0 0 0-8 8v128a8 8 0 0 0 8 8h128a8 8 0 0 0 8-8V64a8 8 0 0 0-8-8h-128z" fill="#263238" p-id="1737"></path><path d="M576 976h-128a16 16 0 0 1-16-16v-128a16 16 0 0 1 16-16h128a16 16 0 0 1 16 16v128a16 16 0 0 1-16 16z" fill="#40C4FF" p-id="1738"></path><path d="M576 984h-128c-13.232 0-24-10.768-24-24v-128c0-13.232 10.768-24 24-24h128c13.232 0 24 10.768 24 24v128c0 13.232-10.768 24-24 24z m-128-160a8 8 0 0 0-8 8v128a8 8 0 0 0 8 8h128a8 8 0 0 0 8-8v-128a8 8 0 0 0-8-8h-128z" fill="#263238" p-id="1739"></path><path d="M816 576v-128a16 16 0 0 1 16-16h128a16 16 0 0 1 16 16v128a16 16 0 0 1-16 16h-128a16 16 0 0 1-16-16z" fill="#40C4FF" p-id="1740"></path><path d="M960 600h-128c-13.232 0-24-10.768-24-24v-128c0-13.232 10.768-24 24-24h128c13.232 0 24 10.768 24 24v128c0 13.232-10.768 24-24 24z m-128-160a8 8 0 0 0-8 8v128a8 8 0 0 0 8 8h128a8 8 0 0 0 8-8v-128a8 8 0 0 0-8-8h-128z" fill="#263238" p-id="1741"></path><path d="M48 576v-128a16 16 0 0 1 16-16h128a16 16 0 0 1 16 16v128a16 16 0 0 1-16 16H64a16 16 0 0 1-16-16z" fill="#40C4FF" p-id="1742"></path><path d="M192 600H64c-13.232 0-24-10.768-24-24v-128c0-13.232 10.768-24 24-24h128c13.232 0 24 10.768 24 24v128c0 13.232-10.768 24-24 24z m-128-160a8 8 0 0 0-8 8v128a8 8 0 0 0 8 8h128a8 8 0 0 0 8-8v-128a8 8 0 0 0-8-8H64zM143.696 392a8.016 8.016 0 0 1-7.568-10.608c3.92-11.36 8.432-22.688 13.392-33.664a8.016 8.016 0 0 1 14.576 6.608 371.056 371.056 0 0 0-12.848 32.272 7.952 7.952 0 0 1-7.552 5.392zM172.64 327.984a8 8 0 0 1-6.96-11.952 393.12 393.12 0 0 1 150.4-149.2 8 8 0 0 1 7.792 13.968 377.152 377.152 0 0 0-144.304 143.136 7.92 7.92 0 0 1-6.928 4.048zM352 165.888a8 8 0 0 1-3.232-15.312c10.64-4.688 21.632-8.96 32.672-12.672a8 8 0 1 1 5.104 15.152 372.96 372.96 0 0 0-31.328 12.16 8.112 8.112 0 0 1-3.216 0.672zM856.496 675.632a8 8 0 0 1-7.28-11.296c4.752-10.464 9.072-21.328 12.848-32.272a8 8 0 0 1 15.12 5.232c-3.952 11.392-8.448 22.72-13.392 33.648a8 8 0 0 1-7.296 4.688zM693.344 852.864a8 8 0 0 1-3.904-14.976 377.2 377.2 0 0 0 144.304-143.152 8 8 0 0 1 13.92 7.904 393.152 393.152 0 0 1-150.4 149.216 8.32 8.32 0 0 1-3.92 1.008zM629.328 881.2a8 8 0 0 1-2.56-15.568 379.136 379.136 0 0 0 31.328-12.16 7.984 7.984 0 1 1 6.448 14.64c-10.688 4.704-21.68 8.976-32.672 12.672a7.776 7.776 0 0 1-2.544 0.416zM664.96 167.488a8.048 8.048 0 0 1-3.296-0.704 373.104 373.104 0 0 0-32.272-12.848 8 8 0 0 1 5.216-15.12c11.36 3.936 22.672 8.432 33.648 13.392a8 8 0 0 1-3.296 15.28zM842.192 330.656a8 8 0 0 1-6.992-4.096 377.152 377.152 0 0 0-143.136-144.304 8 8 0 0 1 7.904-13.92 393.12 393.12 0 0 1 149.2 150.4 8 8 0 0 1-6.976 11.92zM870.544 394.672a8.016 8.016 0 0 1-7.584-5.44 376.016 376.016 0 0 0-12.16-31.328 8 8 0 0 1 14.64-6.448c4.704 10.672 8.976 21.664 12.672 32.672a8 8 0 0 1-7.568 10.544zM381.328 880.304a8.256 8.256 0 0 1-2.608-0.432 387.584 387.584 0 0 1-33.648-13.408 8 8 0 0 1 6.608-14.576 374.88 374.88 0 0 0 32.256 12.848 8.016 8.016 0 0 1-2.608 15.568zM317.312 851.36a8.112 8.112 0 0 1-3.952-1.04 393.152 393.152 0 0 1-149.216-150.4 8 8 0 1 1 13.968-7.792 377.2 377.2 0 0 0 143.152 144.304 8 8 0 0 1 3.008 10.912 8.032 8.032 0 0 1-6.96 4.016zM155.216 672a8 8 0 0 1-7.328-4.768 392.656 392.656 0 0 1-12.672-32.672 8 8 0 1 1 15.152-5.104c3.568 10.576 7.664 21.104 12.16 31.328a8 8 0 0 1-7.312 11.216zM368 520h-128a8 8 0 0 1 0-16h128a8 8 0 0 1 0 16zM784 520h-128a8 8 0 0 1 0-16h128a8 8 0 0 1 0 16z" fill="#263238" p-id="1743"></path><path d="M512 376a8 8 0 0 1-8-8v-128a8 8 0 0 1 16 0v128a8 8 0 0 1-8 8z" fill="#263238" p-id="1744"></path><path d="M512 792a8 8 0 0 1-8-8v-128a8 8 0 0 1 16 0v128a8 8 0 0 1-8 8z" fill="#263238" p-id="1745"></path><path d="M584 464H496a8 8 0 0 1 0-16h88a8 8 0 0 1 0 16z" fill="#263238" p-id="1746"></path><path d="M584 520h-144a8 8 0 0 1 0-16h144a8 8 0 0 1 0 16z" fill="#263238" p-id="1747"></path><path d="M584 576h-144a8 8 0 0 1 0-16h144a8 8 0 0 1 0 16z" fill="#263238" p-id="1748"></path></svg>